<?xml version="1.0" encoding="utf-8"?>
<!DOCTYPE svg PUBLIC "-//W3C//DTD SVG 1.0//EN" "http://www.w3.org/TR/2001/REC-SVG-20010904/DTD/svg10.dtd">
<svg version="1.0" xmlns="http://www.w3.org/2000/svg" width="800px" height="800px" viewBox="0 0 800 800" preserveAspectRatio="xMidYMid meet">
 <g fill="#e72b1f">
  <path d="M379.75 675.50 c-1.35 -0.25 -6.10 -0.65 -10.50 -1 -10.80 -0.75 -22.10 -2.70 -32.75 -5.60 -0.95 -0.25 -3.20 -0.80 -5 -1.15 -4.10 -0.90 -13 -3.45 -14.25 -4.15 -0.55 -0.25 -3.70 -1.40 -7 -2.50 -3.30 -1.10 -7.70 -2.70 -9.75 -3.55 -2.05 -0.90 -5.45 -2.30 -7.50 -3.10 -2.05 -0.85 -5.20 -2.30 -7 -3.20 -1.80 -0.95 -4.95 -2.45 -7 -3.40 -2.05 -0.95 -5.45 -2.75 -7.50 -4 -2.05 -1.30 -3.95 -2.35 -4.25 -2.35 -0.30 0 -2.95 -1.55 -5.95 -3.50 -2.95 -1.90 -5.50 -3.50 -5.60 -3.50 -0.40 0 -4.85 -3.10 -5.45 -3.80 -0.25 -0.30 -1.85 -1.40 -3.50 -2.40 -5.40 -3.35 -16.55 -12 -24.15 -18.75 -4.85 -4.30 -17.60 -16.85 -21.15 -20.85 -7.50 -8.40 -16.40 -19.25 -17.55 -21.40 -0.30 -0.55 -1.60 -2.45 -2.85 -4.15 -1.25 -1.70 -2.95 -4.10 -3.80 -5.40 -3.65 -5.65 -4.25 -6.60 -5.25 -8.50 -0.60 -1.10 -1.85 -3.10 -2.75 -4.50 -1.80 -2.80 -3.15 -5.25 -4.90 -9 -0.65 -1.35 -1.90 -3.75 -2.70 -5.25 -0.85 -1.50 -2.30 -4.65 -3.20 -7 -0.90 -2.35 -2.25 -5.35 -2.95 -6.75 -1.50 -2.70 -8.35 -22.85 -9.70 -28.50 -0.50 -1.90 -1.10 -4.40 -1.40 -5.50 -0.65 -2.30 -0.90 -3.40 -2.65 -11.50 -1.55 -7.35 -1.95 -9.95 -2.95 -19.50 -0.45 -4.10 -1 -9.75 -1.30 -12.50 -0.60 -5.75 -0.80 -33.45 -0.30 -38.25 0.20 -1.80 0.55 -5.40 0.80 -8 1.45 -14.80 2.55 -21.70 5.45 -34 2.20 -9.10 3.30 -12.90 6.05 -20 1.30 -3.45 2.50 -6.90 2.70 -7.75 0.20 -0.80 1.55 -3.95 3.05 -7 1.45 -3 3.35 -7 4.20 -8.80 0.80 -1.85 2.40 -4.70 3.50 -6.35 1.15 -1.65 2.05 -3.20 2.05 -3.45 0 -0.80 8.40 -13.15 10.45 -15.40 0.75 -0.80 1.90 -2.30 2.55 -3.25 4.40 -6.55 25.55 -26.80 30.95 -29.55 0.70 -0.40 2.90 -1.75 4.80 -3 4.55 -3 17 -9.20 20.65 -10.25 1.55 -0.45 5.35 -1.55 8.35 -2.50 8.05 -2.40 11.95 -3.05 22.25 -3.75 7.95 -0.50 10.55 -0.45 18.50 0.25 8.15 0.70 14.40 1.80 18.50 3.25 1.30 0.45 3.95 1.25 10.40 3.05 2 0.55 5.60 1.95 8 3.05 2.40 1.15 6.15 2.85 8.35 3.80 2.20 0.95 5.35 2.45 7 3.40 1.65 0.90 4.35 2.35 6 3.25 1.65 0.90 3.60 2.05 4.30 2.50 0.70 0.50 3.15 1.95 5.50 3.15 2.30 1.25 5.45 2.90 6.95 3.75 3.60 1.95 19.55 7.25 25.25 8.40 6.55 1.25 29.30 1.30 36.75 0 2.90 -0.45 5.80 -1.05 6.50 -1.30 0.70 -0.20 2.25 -0.65 3.50 -1 1.25 -0.30 2.65 -0.80 3.10 -1.05 0.50 -0.25 1.20 -0.45 1.55 -0.45 1.20 0 8.90 -2.55 14.60 -4.85 3.05 -1.20 6.30 -2.40 7.25 -2.65 0.95 -0.25 3.05 -0.80 4.60 -1.25 1.60 -0.40 4.10 -1.10 5.50 -1.45 1.45 -0.40 3.90 -1.05 5.40 -1.45 8.65 -2.30 16 -3.15 31.75 -3.65 10.20 -0.30 34.10 0.75 39.75 1.75 1.50 0.30 4.90 0.85 7.50 1.30 2.60 0.45 5.55 1 6.50 1.25 0.95 0.25 3.55 0.80 5.75 1.30 12.45 2.55 16.45 3.80 23.50 7.20 10.75 5.25 23.50 16.45 36.50 32.15 3.55 4.30 10.25 14 12.30 17.85 0.65 1.25 1.60 2.70 2.10 3.20 0.45 0.55 1.50 2.35 2.25 4 0.75 1.65 2.05 4.35 2.90 6 0.85 1.70 2.15 4.20 2.85 5.55 0.70 1.40 2.75 6.35 4.50 11 3.30 8.60 4.80 13.80 8.85 30.50 0.65 2.60 1.85 12.45 2.75 22.50 0.90 10.20 0.90 31.45 0 40.25 -1.70 16.70 -2.30 21.90 -2.75 23.75 -0.25 1.10 -0.70 3.15 -1 4.50 -0.70 3.45 -3.90 17.10 -4.50 19.25 -2.15 8.05 -7.75 24.20 -9.95 28.75 -1.05 2.20 -2.20 4.90 -2.55 6 -0.35 1.10 -1.55 3.70 -2.70 5.75 -1.10 2.05 -2.90 5.55 -3.95 7.70 -1.05 2.20 -2.90 5.45 -4.05 7.25 -1.20 1.80 -2.65 4.20 -3.20 5.35 -0.55 1.15 -1.80 3.05 -2.70 4.25 -0.95 1.20 -2.30 3.20 -3.05 4.45 -1.55 2.55 -3.35 5.10 -7.50 10.50 -8.75 11.50 -11.55 14.65 -23.90 26.95 -12.65 12.65 -19.40 18.55 -31.30 27.30 -9.80 7.25 -12.20 8.90 -14.60 10.30 -1.25 0.70 -4.20 2.55 -6.50 4.10 -2.35 1.55 -4.50 2.85 -4.80 2.85 -0.30 0 -2.45 1.20 -4.80 2.65 -2.30 1.45 -5.45 3.20 -6.95 3.80 -1.50 0.65 -4.30 2 -6.25 3 -1.90 1 -4.85 2.40 -6.50 3.05 -1.65 0.65 -4.95 2.05 -7.40 3.10 -7.95 3.45 -25.55 9.35 -31.85 10.60 -1.80 0.40 -4.50 1 -6 1.45 -1.50 0.40 -4.45 1.10 -6.50 1.55 -2.05 0.45 -4.65 1.05 -5.75 1.30 -3.60 0.85 -12.35 2 -21.75 2.85 -10.20 0.90 -45.40 1.35 -49.75 0.65z"/>
 </g>
 <g fill="#328239">
  <path d="M394 264.95 c-13.90 -2.25 -26.70 -6.30 -37 -11.60 -15.65 -8.15 -21.70 -11.10 -25.45 -12.40 -2.30 -0.85 -5.45 -2.10 -7 -2.80 -1.55 -0.70 -3.25 -1.45 -3.80 -1.70 -1.05 -0.45 -2.75 -0.90 -9.75 -2.50 -19.15 -4.35 -25.70 -5.20 -38.50 -4.80 -9.60 0.30 -18.15 1.05 -21.25 1.85 -1.10 0.30 -3.80 0.85 -6 1.25 -2.20 0.40 -6.45 1.25 -9.50 2 -6.25 1.45 -7.90 1.55 -8.70 0.55 -0.50 -0.55 -0.15 -1.10 1.75 -2.65 1.30 -1.05 3.50 -2.90 4.85 -4.10 4.30 -3.70 12.30 -8.60 18.85 -11.40 7.55 -3.30 10.80 -4.35 17 -5.40 12.75 -2.25 20.80 -2.90 30.25 -2.55 7.20 0.30 9.05 0.50 19.75 2.05 2.60 0.40 5.75 0.85 7 1 2.80 0.35 14 3.05 17 4.10 1.25 0.45 3.50 1.10 5 1.45 6.35 1.55 7.95 1.95 8.30 2.35 0.20 0.20 0.65 0.35 1 0.35 0.95 0 0.35 -1.35 -1.80 -4 -1 -1.25 -4.05 -5.05 -6.80 -8.50 -5.55 -6.95 -20.35 -22 -24.65 -25.05 -1.55 -1.10 -4.80 -3.55 -7.30 -5.45 -7.80 -5.95 -9.05 -6.85 -10.80 -7.75 -3.35 -1.75 -5.95 -4.25 -5.95 -5.75 0 -2.15 2.35 -3.85 5.85 -4.30 5.90 -0.70 15.85 0.40 20.40 2.30 0.55 0.20 3.05 1.20 5.50 2.25 10.10 4.15 16.85 7.95 24.90 13.95 9.95 7.40 23.75 21.55 29.80 30.45 0.90 1.35 1.85 2.25 2.05 2 0.20 -0.20 0.65 -3.30 0.95 -6.90 0.80 -8.80 2.65 -20.80 5.10 -32.25 1.25 -6 3 -11.80 4.45 -14.50 0.20 -0.45 0.55 -1.55 0.70 -2.50 0.75 -3.75 4.45 -12.30 6.30 -14.75 0.25 -0.25 0.65 -1.40 0.95 -2.55 0.30 -1.10 1.70 -3.90 3.10 -6.25 1.45 -2.30 3.20 -5.30 3.90 -6.60 0.70 -1.35 2.55 -3.95 4.15 -5.75 1.60 -1.85 2.90 -3.50 2.90 -3.70 0 -0.80 4.55 -2.95 7.25 -3.45 3.50 -0.65 8.60 -0.05 15.65 1.85 5.20 1.40 12.10 5.20 12.10 6.70 0 0.50 -1 1.80 -2.20 2.90 -1.20 1.10 -2.90 3 -3.70 4.20 -0.80 1.20 -2.10 2.70 -2.85 3.40 -0.70 0.65 -1.80 2 -2.40 3 -0.55 0.95 -2.20 3.35 -3.60 5.25 -1.40 1.95 -3.30 4.95 -4.20 6.75 -0.90 1.80 -2.40 4.50 -3.30 6 -0.95 1.50 -3.15 6.60 -5 11.25 -4.25 10.95 -4.15 10.65 -4.70 13 -0.25 1.10 -1.20 5.05 -2.15 8.75 -3.15 12.20 -3.20 12.40 -4.90 26.45 -0.25 2.05 -0.35 3.85 -0.25 3.95 0.15 0.15 2.40 -1.75 5.05 -4.20 2.65 -2.45 6 -5.35 7.45 -6.45 1.45 -1.10 3.80 -2.95 5.25 -4.10 1.40 -1.20 2.90 -2.15 3.20 -2.15 0.35 0 1.65 -0.85 2.85 -1.95 1.20 -1.05 3.65 -2.65 5.45 -3.55 1.80 -0.90 4.95 -2.60 7 -3.80 3.90 -2.20 6.75 -3.35 17.75 -7.05 7.25 -2.45 11.75 -3.30 23.70 -4.40 8.85 -0.85 16.50 -0.50 25 1.05 6.45 1.15 8.50 1.85 15 5.10 4.85 2.40 6.05 3.40 6.05 4.90 0 0.95 -0.40 1.45 -1.75 2 -1.80 0.75 -8.85 2.25 -16.25 3.40 -16.05 2.60 -16.90 2.80 -26.85 6.60 -3.90 1.50 -7.40 2.70 -7.80 2.70 -0.95 0 -15.80 7.55 -19.10 9.70 -11.40 7.45 -17.45 11.65 -17.65 12.30 -0.25 0.60 0.05 0.60 6.40 -0.25 2.90 -0.40 10 -1.20 15.75 -1.80 15.20 -1.55 28.95 -1 44.50 1.80 2.50 0.45 4.95 0.90 5.50 0.95 2.20 0.35 19.20 6.45 22 7.85 1.65 0.85 4.80 2.45 7 3.55 2.20 1.10 5.60 3.10 7.50 4.35 1.95 1.30 4.70 3.15 6.10 4.10 1.45 0.95 2.65 1.85 2.65 2.05 0 0.15 1.45 1.35 3.25 2.65 1.80 1.25 3.65 2.90 4.10 3.55 0.70 1.15 0.75 1.35 0.05 2.05 -0.70 0.65 -1.30 0.65 -5.95 -0.35 -2.85 -0.60 -6.65 -1.35 -8.45 -1.70 -1.80 -0.40 -6.15 -1.25 -9.75 -1.95 -16.65 -3.35 -37.25 -4.75 -56.60 -3.90 -15.35 0.65 -25.40 2 -34.65 4.60 -1.95 0.55 -6.05 1.60 -10.35 2.65 -1.60 0.35 -5.95 1.70 -9.65 3 -6.05 2.05 -11.20 3.45 -20.75 5.60 -8.60 1.95 -19.95 2.65 -26.25 1.65z"/>
 </g>
</svg>